{"title":"Chennai Express (2013) 1CD CAM XviD MP3 [ExD-ExclusivE]","uid":8795308,"size":728676451,"categoryP":"video","categoryS":"movies","magnet":"?xt=urn:btih:b890307ba5b3d1825506a1f50b8a388616651ae8&amp;dn=Chennai+Express+%282013%29+1CD+CAM+XviD+MP3+%5BExD-ExclusivE%5D&amp;tr=udp%3A%2F%2Ftracker.openbittorrent.com%3A80&amp;tr=udp%3A%2F%2Fopen.demonii.com%3A1337&amp;tr=udp%3A%2F%2Ftracker.coppersurfer.tk%3A6969&amp;tr=udp%3A%2F%2Fexodus.desync.com%3A6969","seeders":1,"leechers":0,"uploader":"srkfan","files":2,"time":1376060147,"description":"[b]SilverTorrent - Clean And Verified Torrents Download[/b]\n\n------------------------------------------------------ &lt;a href=&quot;\nhttp://media2.intoday.in/indiatoday/images/stories//2013january/chennai-express4_660_010213115706.jpg&quot; rel=&quot;nofollow&quot; target=&quot;_NEW&quot;&gt;\nhttp://media2.intoday.in/indiatoday/images/stories//2013january/chennai-express4_660_010213115706.jpg&lt;/a&gt;\n\nGeneral\nComplete name: Chennai Express (2013) - 1CD - CAM - XviD - MP3 [ExD-ExclusivE]\nFormat: AVI\nFormat/Info: Audio Video Interleave\nFile size: 695 MiB\nDuration: 2h 9mn\nOverall bit rate: 750 Kbps\n\nVideo\nFormat: XVID\nDuration: 2h 9mn\nBit rate: 657 Kbps\nWidth: 640 pixels\nHeight: 272 pixels\nDisplay aspect ratio: 2.35:1\nFrame rate: 25.000 fps\nColor space: YUV\nChroma subsampling: 4:2:0\nBit depth: 8 bits\nScan type: Progressive\nCompression mode: Lossy\nBits/(Pixel*Frame): 0.151\nStream size: 609 MiB (88%)\n\nAudio\nFormat: MPEG Audio\nDuration: 2h 9mn\nSource duration: 2h 9mn\nBit rate mode: Constant\nBit rate: 80.0 Kbps\nChannel(s): 2 channels\nSampling rate: 48.0 KHz\nCompression mode: Lossy\nStream size: 74.1 MiB (11%)\n\nScreens Can be found Here :\n &lt;a href=&quot;\nhttp://www.imagebam.com/gallery/d37s8m4cghcdof7glisyyd0r973hl0ny&quot; rel=&quot;nofollow&quot; target=&quot;_NEW&quot;&gt;\nhttp://www.imagebam.com/gallery/d37s8m4cghcdof7glisyyd0r973hl0ny&lt;/a&gt;\n\nor Here\n\n","torrent":{"xt":"urn:btih:b890307ba5b3d1825506a1f50b8a388616651ae8","amp;dn":"Chennai+Express+%282013%29+1CD+CAM+XviD+MP3+%5BExD-ExclusivE%5D","amp;tr":["udp%3A%2F%2Ftracker.openbittorrent.com%3A80","udp%3A%2F%2Fopen.demonii.com%3A1337","udp%3A%2F%2Ftracker.coppersurfer.tk%3A6969","udp%3A%2F%2Fexodus.desync.com%3A6969"],"infoHash":"b890307ba5b3d1825506a1f50b8a388616651ae8","infoHashBuffer":{"type":"Buffer","data":[184,144,48,123,165,179,209,130,85,6,161,245,11,138,56,134,22,101,26,232]},"announce":[],"urlList":[]}}